<svg version="1.0" xmlns="http://www.w3.org/2000/svg"
 width="512.000000pt" height="512.000000pt" viewBox="0 0 512.000000 512.000000"
 preserveAspectRatio="xMidYMid meet">

<g transform="translate(0.000000,512.000000) scale(0.100000,-0.100000)"
fill="#e4e6eb" stroke="none">
<path d="M2517 5109 c-35 -21 -47 -72 -47 -203 0 -139 2 -136 -84 -136 -66 0
-246 -30 -370 -61 -784 -197 -1411 -824 -1606 -1608 -31 -122 -60 -302 -60
-367 0 -86 3 -84 -139 -84 -100 0 -133 -4 -161 -18 -66 -33 -66 -111 0 -144
28 -14 61 -18 161 -18 142 0 139 2 139 -84 0 -65 29 -245 60 -367 195 -783
822 -1411 1606 -1608 124 -31 304 -61 370 -61 86 0 84 3 84 -139 0 -100 4
-133 18 -161 33 -66 111 -66 145 0 16 31 17 58 15 222 -4 243 10 227 -207 244
-463 37 -826 179 -1177 461 -509 410 -799 1081 -746 1726 42 512 242 950 596
1302 805 803 2090 803 2892 1 561 -561 746 -1378 483 -2132 -42 -123 -146
-332 -216 -436 -218 -325 -505 -573 -846 -733 -53 -25 -101 -54 -107 -64 -29
-56 9 -131 68 -131 15 0 86 29 158 64 638 317 1080 912 1200 1614 13 79 24
165 24 190 0 95 -5 92 139 92 100 0 133 4 161 18 41 20 58 59 44 100 -17 48
-62 62 -205 62 -142 0 -139 -2 -139 84 0 66 -30 246 -61 370 -72 285 -196 545
-383 796 -90 121 -303 335 -426 427 -327 244 -702 394 -1082 434 -56 6 -118
13 -135 15 l-33 5 0 125 c0 134 -12 184 -48 203 -26 14 -62 14 -85 0z"/>
<path d="M2371 4119 c-107 -13 -271 -54 -375 -95 -109 -43 -268 -129 -308
-165 -35 -34 -37 -77 -4 -115 36 -42 75 -37 176 24 752 447 1757 64 2029 -775
66 -204 85 -469 47 -673 -105 -579 -557 -1031 -1136 -1136 -129 -24 -362 -23
-490 1 -494 93 -893 434 -1066 912 -58 159 -77 275 -78 463 -1 241 36 402 144
623 50 102 51 106 37 139 -20 48 -66 67 -112 45 -27 -13 -42 -34 -83 -119
-262 -533 -198 -1165 167 -1643 240 -314 579 -519 981 -592 126 -23 390 -23
515 0 635 115 1120 570 1271 1192 65 270 52 579 -37 850 -227 693 -946 1149
-1678 1064z"/>
<path d="M2500 3575 c-21 -22 -24 -38 -28 -114 l-4 -88 -67 -12 c-138 -26
-297 -109 -408 -214 -109 -103 -207 -283 -234 -428 l-12 -67 -88 -4 c-76 -4
-92 -7 -114 -28 -18 -17 -25 -34 -25 -60 0 -26 7 -43 25 -60 22 -21 38 -24
114 -28 l88 -4 12 -67 c26 -138 109 -297 214 -408 103 -109 283 -207 428 -234
l67 -12 4 -88 c4 -76 7 -92 28 -114 17 -18 34 -25 60 -25 26 0 43 7 60 25 21
22 24 38 28 114 l4 88 67 12 c86 15 209 66 286 116 33 21 93 72 133 111 63 63
72 76 72 108 0 48 -36 86 -81 86 -25 0 -46 -14 -109 -73 -87 -82 -197 -145
-296 -171 -34 -9 -64 -16 -67 -16 -2 0 -7 39 -9 87 -4 79 -7 88 -32 110 -35
29 -77 29 -112 0 -25 -22 -28 -31 -32 -110 -2 -48 -7 -87 -9 -87 -3 0 -33 7
-67 16 -167 43 -325 168 -403 319 -33 63 -73 178 -73 208 0 2 39 7 87 9 79 4
88 7 110 32 29 35 29 77 0 112 -22 25 -31 28 -110 32 -48 2 -87 7 -87 9 0 30
40 145 73 208 78 151 236 276 403 319 34 9 64 16 67 16 2 0 7 -39 9 -87 4 -79
7 -88 32 -110 15 -12 40 -23 56 -23 16 0 41 11 56 23 25 22 28 31 32 110 2 48
7 87 9 87 30 0 145 -40 208 -73 151 -78 276 -236 319 -403 9 -34 16 -64 16
-67 0 -2 -39 -7 -87 -9 -79 -4 -88 -7 -110 -32 -30 -35 -29 -77 1 -113 l24
-28 260 0 260 0 26 24 c35 33 36 88 1 121 -22 21 -38 24 -114 28 l-88 4 -12
67 c-28 149 -127 329 -240 434 -114 105 -264 182 -404 208 l-65 12 -4 88 c-4
76 -7 92 -28 114 -17 18 -34 25 -60 25 -26 0 -43 -7 -60 -25z"/>
<path d="M2480 2707 c-51 -27 -90 -90 -90 -147 0 -87 83 -170 170 -170 87 0
170 83 170 170 0 57 -39 120 -90 147 -55 29 -105 29 -160 0z"/>
</g>
</svg>
