<svg version="1.0" xmlns="http://www.w3.org/2000/svg"
 width="512.000000pt" height="512.000000pt" viewBox="0 0 512.000000 512.000000"
 preserveAspectRatio="xMidYMid meet">

<g transform="translate(0.000000,512.000000) scale(0.100000,-0.100000)"
fill="#e4e6eb" stroke="none">
<path d="M137 4830 c-43 -8 -81 -33 -111 -74 -20 -26 -21 -42 -24 -353 -3
-313 -2 -327 18 -369 13 -26 36 -53 58 -66 l37 -23 1058 -3 c751 -2 1071 1
1100 9 53 14 102 64 117 118 7 28 10 140 8 344 -3 281 -4 304 -23 336 -27 46
-64 72 -116 82 -54 10 -2069 10 -2122 -1z"/>
<path d="M2857 4830 c-48 -9 -86 -37 -112 -81 -19 -32 -20 -55 -23 -336 -2
-204 1 -316 8 -344 15 -54 64 -104 117 -118 29 -8 349 -11 1100 -9 l1058 3 37
23 c22 13 45 40 58 66 20 42 21 56 18 369 -3 311 -4 327 -24 353 -31 42 -67
65 -115 75 -54 10 -2069 10 -2122 -1z"/>
<path d="M145 3611 c-47 -12 -72 -28 -102 -68 l-28 -36 -3 -313 c-2 -200 1
-327 8 -353 13 -48 65 -96 120 -111 27 -7 165 -10 408 -8 349 3 369 4 402 24
19 11 45 35 57 54 23 33 23 37 23 370 0 333 0 337 -23 370 -12 19 -38 43 -57
54 -33 20 -51 21 -405 23 -203 1 -383 -2 -400 -6z"/>
<path d="M1495 3611 c-47 -12 -72 -28 -102 -68 l-28 -36 -3 -313 c-2 -200 1
-327 8 -353 12 -47 64 -96 117 -110 53 -15 2093 -15 2146 0 53 14 105 63 117
110 7 26 10 153 8 353 l-3 313 -28 36 c-59 78 33 72 -1147 74 -580 0 -1068 -2
-1085 -6z"/>
<path d="M4213 3611 c-45 -12 -81 -37 -103 -74 -19 -30 -20 -53 -20 -368 0
-332 0 -336 23 -369 12 -19 38 -43 57 -54 33 -20 53 -21 402 -24 243 -2 381 1
408 8 55 15 107 63 120 111 7 26 10 153 8 353 l-3 313 -28 36 c-55 73 -49 72
-462 74 -203 1 -385 -2 -402 -6z"/>
<path d="M122 2390 c-44 -10 -100 -65 -113 -110 -6 -22 -9 -153 -7 -352 3
-302 4 -318 24 -344 29 -40 65 -64 110 -74 51 -12 2077 -12 2128 0 49 11 85
37 111 81 19 32 20 55 23 336 2 204 -1 316 -8 344 -15 53 -64 104 -115 118
-47 13 -2099 14 -2153 1z"/>
<path d="M2835 2385 c-50 -18 -91 -62 -105 -115 -7 -27 -10 -145 -8 -343 3
-281 4 -304 23 -336 26 -44 62 -70 111 -81 51 -12 2077 -12 2128 0 45 10 81
34 110 74 20 26 21 42 24 344 2 199 -1 330 -7 352 -14 47 -69 99 -117 111 -22
5 -499 8 -1079 8 -871 0 -1047 -2 -1080 -14z"/>
<path d="M124 1169 c-47 -14 -101 -79 -109 -131 -3 -24 -5 -178 -3 -344 l3
-301 28 -36 c56 -73 46 -72 483 -72 l390 0 41 27 c72 47 73 54 73 426 0 325 0
329 -23 362 -12 19 -38 43 -57 54 -33 20 -51 21 -415 23 -211 1 -394 -2 -411
-8z"/>
<path d="M1474 1169 c-41 -12 -101 -79 -109 -121 -3 -18 -5 -173 -3 -344 l3
-311 28 -36 c59 -78 -36 -72 1167 -72 1203 0 1108 -6 1167 72 l28 36 3 311 c2
171 0 326 -3 344 -8 45 -68 109 -113 122 -47 13 -2124 12 -2168 -1z"/>
<path d="M4197 1166 c-21 -8 -47 -22 -59 -33 -47 -42 -48 -53 -48 -398 0 -369
1 -376 73 -423 l41 -27 390 0 c437 0 427 -1 483 72 l28 36 3 301 c2 166 0 320
-3 344 -8 55 -62 117 -113 132 -59 16 -748 12 -795 -4z"/>
</g>
</svg>
